# xmcd
#
# Track frame offsets: 
#        150
#        16820
#        37358
#        52896
#        73123
#        88506
#        102511
#        124527
#        137033
#        144710
#        157032
#        171448
#        188754
#        204226
#        219047
#        237276
#        253227
#
# Disc length: 3537 seconds
#
# Revision: 0
# Processed by: cddbd v1.5.2PL0 Copyright (c) Steve Scherf et al.
# Submitted via: ExactAudioCopy v0.99pb4
#
DISCID=f50dcf11
DTITLE=The Ferrymen - A long night at the ferry
DYEAR=1999
DGENRE=Country
TTITLE0=Annie Laurie
TTITLE1=Nancy - Migulay
TTITLE2=The Loch tay boat song
TTITLE3=The bleacher Lassie O' Kelvinhaugh
TTITLE4=Invergordon to thee
TTITLE5=Jock O' Hazeldean
TTITLE6=Flora Macdonald's lament
TTITLE7=The road and the miles to Dundee
TTITLE8=My name is Jock Stewart
TTITLE9=The barnyards O' Delgaty
TTITLE10=The wild rose of the mountain
TTITLE11=Tramps and hawkers
TTITLE12=Ca' the yowes
TTITLE13=The bonnie lass O' Fyvie
TTITLE14=Ae fond kiss
TTITLE15=The Greenland whale
TTITLE16=Scots Wha Hae Wi' Wallace bled
EXTD=
EXTT0=
EXTT1=
EXTT2=
EXTT3=
EXTT4=
EXTT5=
EXTT6=
EXTT7=
EXTT8=
EXTT9=
EXTT10=
EXTT11=
EXTT12=
EXTT13=
EXTT14=
EXTT15=
EXTT16=
PLAYORDER=
